#!OML:ASF E:\CV Data\Top Level 1\Subject 1\Session 1\player.ASF
:FULLY-SPECIFIED
:DEGREES
562
root 4.83676 15.1828 13.027 -9.03845 -4.11911 -6.45145
lowerback 16.678 1.14575 3.34423
upperback 3.42567 2.24127 2.43047
thorax -5.6504 1.0565 0.211419
lowerneck -15.334 -7.26643 -13.3587
upperneck 23.9221 -9.30641 9.63362
head 11.4241 -4.35193 4.38602
rclavicle 1.8518e-014 1.29459e-014
rhumerus -36.3336 1.81946 -84.5884
rradius 33.7997
rwrist -15.4381
rhand -24.9618 -1.42097
rfingers 7.12502
rthumb 1.54849 -31.3951
lclavicle 1.8518e-014 1.29459e-014
lhumerus -37.9246 2.4136 88.2919
lradius 40.5327
lwrist 4.50571
lhand -25.5863 3.0508
lfingers 7.12502
lthumb 0.945308 33.0285
rfemur -30.1935 -0.805618 25.1606
rtibia 67.1187
rfoot -23.7599 -8.52249
rtoes -1.13797
lfemur -29.298 10.785 -8.72447
ltibia 66.5472
lfoot -24.498 -5.67576
ltoes -5.47755
563
root 4.83909 15.3154 13.0917 -8.6037 -3.8956 -6.44499
lowerback 16.385 1.06928 3.33673
upperback 3.31592 2.1318 2.46328
thorax -5.6124 1.00359 0.278426
lowerneck -15.3957 -7.21316 -13.3937
upperneck 24.2284 -9.19633 9.49451
head 11.5323 -4.32063 4.36314
rclavicle 3.31287e-014 3.45885e-014
rhumerus -36.4124 1.73239 -84.3231
rradius 34.1604
rwrist -14.2441
rhand -25.325 -1.3754
rfingers 7.12502
rthumb 1.19769 -31.3518
lclavicle 3.31287e-014 3.45885e-014
lhumerus -37.8072 2.56802 88.0807
lradius 40.7795
lwrist 2.26716
lhand -25.8578 3.23679
lfingers 7.12502
lthumb 0.683133 33.2154
rfemur -29.4999 -0.941131 25.0741
rtibia 65.5494
rfoot -23.3974 -8.39419
rtoes -0.816499
lfemur -28.639 10.6507 -8.86628
ltibia 64.9258
lfoot -24.0499 -5.91398
ltoes -5.14285
564
root 4.84055 15.4501 13.1549 -8.13775 -3.65355 -6.45127
lowerback 16.0616 0.980484 3.339
upperback 3.19582 2.00668 2.49881
thorax -5.56831 0.942905 0.345767
lowerneck -15.4884 -7.15073 -13.4113
upperneck 24.5847 -9.06771 9.32462
head 11.6615 -4.28282 4.32921
rclavicle 1.8796e-014 1.22097e-014
rhumerus -36.4744 1.59704 -84.07
rradius 34.4664
rwrist -13.5638
rhand -25.8374 -1.28135
rfingers 7.12502
rthumb 0.702807 -31.2599
lclavicle 1.8796e-014 1.22097e-014
lhumerus -37.7044 2.84096 87.7999
lradius 40.9459
lwrist 0.254584
lhand -25.9602 3.64242
lfingers 7.12502
lthumb 0.584157 33.6214
rfemur -28.8158 -1.03828 25.0086
rtibia 63.9184
rfoot -22.984 -8.30298
rtoes -0.508826
lfemur -28.001 10.4656 -9.00371
ltibia 63.249
lfoot -23.5467 -6.1228
ltoes -4.85182
565
root 4.84144 15.5727 13.2174 -7.65105 -3.40456 -6.46169
lowerback 15.7213 0.884294 3.34412
upperback 3.06969 1.87143 2.53405
thorax -5.5208 0.877175 0.412598
lowerneck -15.6092 -7.0816 -13.4082
upperneck 24.9681 -8.92455 9.12903
head 11.8035 -4.2396 4.28444
rclavicle -6.09399e-015 -1.33061e-014
rhumerus -36.5167 1.41144 -83.8271
rradius 34.7266
rwrist -13.4213
rhand -26.4278 -1.08918
rfingers 7.12502
rthumb 0.132522 -31.0689
lclavicle -6.09399e-015 -1.33061e-014
lhumerus -37.6184 3.18196 87.4784
lradius 41.0813
lwrist -1.34219
lhand -25.8736 4.24116
lfingers 7.12502
lthumb 0.667819 34.2199
rfemur -28.1921 -1.08731 24.9539
rtibia 62.2917
rfoot -22.525 -8.24875
rtoes -0.218703
lfemur -27.4291 10.2418 -9.13688
ltibia 61.5817
lfoot -22.9956 -6.30636
ltoes -4.5853
566
root 4.84148 15.7073 13.2774 -7.15227 -3.15728 -6.469
lowerback 15.376 0.786083 3.34791
upperback 2.93872 1.73269 2.56482
thorax -5.47493 0.809616 0.47519
lowerneck -15.737 -7.00863 -13.3888
upperneck 25.3533 -8.77496 8.92302
head 11.9468 -4.19381 4.23387
rclavicle 3.39487e-014 2.90723e-014
rhumerus -36.5418 1.16236 -83.588
rradius 34.9572
rwrist -13.7573
rhand -27.015 -0.862994
rfingers 7.12502
rthumb -0.434578 -30.8423
lclavicle 3.39487e-014 2.90723e-014
lhumerus -37.5513 3.53274 87.1455
lradius 41.2169
lwrist -2.35267
lhand -25.5916 5.05005
lfingers 7.12502
lthumb 0.940185 35.0277
rfemur -27.5211 -1.07777 24.9076
rtibia 60.5785
rfoot -22.0276 -8.23663
rtoes 0.0734791
lfemur -26.8073 9.98474 -9.27476
ltibia 59.8233
lfoot -22.4038 -6.45456
ltoes -4.35595
567
root 4.84094 15.8405 13.3358 -6.64701 -2.91625 -6.46734
lowerback 15.0355 0.688676 3.34571
upperback 2.80451 1.59382 2.58942
thorax -5.43433 0.741882 0.533552
lowerneck -15.8727 -6.93442 -13.356
upperneck 25.7276 -8.62348 8.71546
head 12.0879 -4.14656 4.18024
rclavicle -6.79595e-015 1.57537e-014
rhumerus -36.5538 0.854207 -83.3496
rradius 35.1761
rwrist -14.5075
rhand -27.5348 -0.621472
rfingers 7.12502
rthumb -0.936656 -30.5992
lclavicle -6.79595e-015 1.57537e-014
lhumerus -37.5027 3.84825 86.8282
lradius 41.3708
lwrist -2.66767
lhand -25.2198 5.87759
lfingers 7.12502
lthumb 1.29928 35.8534
rfemur -26.8562 -1.01039 24.8607
rtibia 58.8414
rfoot -21.4966 -8.26535
rtoes 0.363032
lfemur -26.1854 9.7004 -9.41787
ltibia 58.0359
lfoot -21.777 -6.57146
ltoes -4.14408
568
root 4.83993 15.9716 13.3928 -6.13645 -2.68637 -6.45067
lowerback 14.6999 0.595401 3.33414
upperback 2.66646 1.45857 2.60428
thorax -5.39975 0.675854 0.585159
lowerneck -16.0045 -6.86144 -13.314
upperneck 26.078 -8.47675 8.51748
head 12.2209 -4.10004 4.12738
rclavicle 8.59122e-015 1.03368e-014
rhumerus -36.5582 0.486159 -83.1094
rradius 35.3882
rwrist -15.5653
rhand -27.9421 -0.388764
rfingers 7.12502
rthumb -1.33002 -30.3644
lclavicle 8.59122e-015 1.03368e-014
lhumerus -37.4719 4.08672 86.548
lradius 41.5716
lwrist -2.21191
lhand -24.8196 6.75112
lfingers 7.12502
lthumb 1.68584 36.7242
rfemur -26.1894 -0.885189 24.8054
rtibia 57.0589
rfoot -20.921 -8.32614
rtoes 0.680664
lfemur -25.5512 9.3947 -9.57123
ltibia 56.1936
lfoot -21.1017 -6.66367
ltoes -3.94445
569
root 4.83856 16.1001 13.4486 -5.61986 -2.46998 -6.41976
lowerback 14.3683 0.508039 3.31479
upperback 2.52557 1.32959 2.60948
thorax -5.36953 0.612832 0.628822
lowerneck -16.1259 -6.79266 -13.2677
upperneck 26.3937 -8.34046 8.33693
head 12.3414 -4.05624 4.07805
rclavicle 5.96975e-015 2.01269e-014
rhumerus -36.5583 0.0566088 -82.86
rradius 35.5972
rwrist -16.7637
rhand -28.2034 -0.193782
rfingers 7.12502
rthumb -1.58233 -30.1677
lclavicle 5.96975e-015 2.01269e-014
lhumerus -37.4555 4.23168 86.3129
lradius 41.8266
lwrist -0.990584
lhand -24.488 7.53538
lfingers 7.12502
lthumb 2.00605 37.5057
rfemur -25.5335 -0.707837 24.7417
rtibia 55.267
rfoot -20.3267 -8.42141
rtoes 1.02092
lfemur -24.9173 9.06997 -9.73331
ltibia 54.332
lfoot -20.4012 -6.72348
ltoes -3.74754
570
root 4.83689 16.2251 13.5033 -5.09406 -2.26971 -6.37622
lowerback 14.0356 0.427012 3.28914
upperback 2.37951 1.20759 2.60539
thorax -5.34337 0.553161 0.664109
lowerneck -16.2341 -6.72843 -13.2223
upperneck 26.6781 -8.21647 8.17999
head 12.4507 -4.01569 4.03538
rclavicle 1.02001e-014 -7.15625e-015
rhumerus -36.568 -0.414915 -82.6064
rradius 35.8048
rwrist -17.9682
rhand -28.3179 -0.0989106
rfingers 7.12502
rthumb -1.69299 -30.0719
lclavicle 1.02001e-014 -7.15625e-015
lhumerus -37.4546 4.28627 86.1191
lradius 42.145
lwrist 0.916367
lhand -24.2606 8.22131
lfingers 7.12502
lthumb 2.22563 38.1895
rfemur -24.896 -0.481652 24.6697
rtibia 53.4741
rfoot -19.7209 -8.54423
rtoes 1.39889
lfemur -24.2918 8.7319 -9.9016
ltibia 52.4598
lfoot -19.68 -6.75307
ltoes -3.56295
571
root 4.83505 16.3462 13.5571 -4.55643 -2.083 -6.32329
lowerback 13.6963 0.351571 3.25961
upperback 2.23013 1.09178 2.59383
thorax -5.31627 0.496492 0.691861
lowerneck -16.3273 -6.67062 -13.1796
upperneck 26.9247 -8.10706 8.04622
head 12.5458 -3.97943 3.99902
rclavicle 1.48095e-014 1.83876e-014
rhumerus -36.5865 -0.911402 -82.3533
rradius 36.0087
rwrist -19.0648
rhand -28.3098 -0.0961149
rfingers 7.12502
rthumb -1.68512 -30.0692
lclavicle 1.48095e-014 1.83876e-014
lhumerus -37.4669 4.27049 85.9524
lradius 42.5282
lwrist 3.35852
lhand -24.1366 8.76982
lfingers 7.12502
lthumb 2.34542 38.7367
rfemur -24.2823 -0.217735 24.5909
rtibia 51.6879
rfoot -19.1099 -8.69182
rtoes 1.80306
lfemur -23.6819 8.37996 -10.0734
ltibia 50.587
lfoot -18.942 -6.75334
ltoes -3.38619
572
root 4.83312 16.4628 13.6102 -4.0064 -1.91091 -6.26402
lowerback 13.3474 0.281991 3.22949
upperback 2.07581 0.983073 2.57641
thorax -5.28837 0.443222 0.711814
lowerneck -16.4004 -6.61853 -13.1425
upperneck 27.1368 -8.01183 7.9367
head 12.6267 -3.94747 3.97017
rclavicle -2.62147e-015 -1.09332e-014
rhumerus -36.6213 -1.39867 -82.1137
rradius 36.2059
rwrist -19.9837
rhand -28.2131 -0.161218
rfingers 7.12502
rthumb -1.59176 -30.135
lclavicle -2.62147e-015 -1.09332e-014
lhumerus -37.4936 4.21168 85.7952
lradius 42.9603
lwrist 6.12561
lhand -24.0783 9.20044
lfingers 7.12502
lthumb 2.40171 39.1667
rfemur -23.6964 0.0763585 24.5073
rtibia 49.9158
rfoot -18.4973 -8.85957
rtoes 2.21824
lfemur -23.0932 8.01799 -10.245
ltibia 48.7265
lfoot -18.1949 -6.72411
ltoes -3.22154
573
root 4.83112 16.5743 13.6627 -3.44593 -1.75046 -6.20279
lowerback 12.9887 0.216804 3.20146
upperback 1.91839 0.880027 2.55639
thorax -5.25762 0.392652 0.726202
lowerneck -16.4538 -6.57166 -13.1127
upperneck 27.314 -7.92883 7.84856
head 12.693 -3.91932 3.94832
rclavicle -4.7025e-015 -5.81445e-015
rhumerus -36.6733 -1.84675 -81.8985
rradius 36.3981
rwrist -20.7165
rhand -28.0761 -0.248171
rfingers 7.12502
rthumb -1.45938 -30.2229
lclavicle -4.7025e-015 -5.81445e-015
lhumerus -37.5332 4.13878 85.63
lradius 43.4244
lwrist 8.99221
lhand -24.0416 9.46783
lfingers 7.12502
lthumb 2.43718 39.4337
rfemur -23.14 0.390482 24.4214
rtibia 48.1649
rfoot -17.8855 -9.04048
rtoes 2.63288
lfemur -22.5307 7.64672 -10.4114
ltibia 46.8912
lfoot -17.4419 -6.66848
ltoes -3.06192
